<?xml version="1.0" encoding="UTF-8"?>
<svg width="64px" height="64px" viewBox="0 0 64 64" version="1.1" xmlns="http://www.w3.org/2000/svg" xmlns:xlink="http://www.w3.org/1999/xlink">
    <title>2.基础元素/3.icon/1.功能图标/4.反馈类图标/64/toast成功</title>
    <g id="2.基础元素/3.icon/1.功能图标/4.反馈类图标/64/toast成功" stroke="none" stroke-width="1" fill="none" fill-rule="evenodd">
        <path d="M32,2 C48.5685425,2 62,15.4314575 62,32 C62,48.5685425 48.5685425,62 32,62 C15.4314575,62 2,48.5685425 2,32 C2,15.4314575 15.4314575,2 32,2 Z M32,6.86486486 C18.1182482,6.86486486 6.86486486,18.1182482 6.86486486,32 C6.86486486,45.8817518 18.1182482,57.1351351 32,57.1351351 C45.8817518,57.1351351 57.1351351,45.8817518 57.1351351,32 C57.1351351,18.1182482 45.8817518,6.86486486 32,6.86486486 Z M45.7731114,23.6606158 L46.3846632,24.2721676 C47.1657118,25.0532162 47.1657118,26.3195461 46.3846632,27.1005947 L30.2932062,43.1920517 C29.5121576,43.9731003 28.2458277,43.9731003 27.4647791,43.1920517 L18.8266098,34.5538824 C18.0455612,33.7728338 18.0455612,32.5065039 18.8266098,31.7254553 L19.4381616,31.1139035 C20.219114,30.3327588 21.485444,30.3327588 22.2664926,31.1138074 L28.1711604,37.0194703 C28.5315851,37.3800135 29.0988116,37.4077843 29.4911233,37.1027863 L29.5853363,37.0195288 L29.5853363,37.0195288 L42.9446635,23.660595 C43.7257362,22.8795868 44.9920501,22.8795962 45.7731114,23.6606158 Z" id="轻提示-成功" fill="#FFFFFF"></path>
    </g>
</svg>